<svg width="175" height="32" viewBox="0 0 175 32" fill="none" xmlns="http://www.w3.org/2000/svg">
<g filter="url(#filter0_d_668_857)">
<path d="M13.9039 7.16396C15.3888 4.20581 19.6112 4.20581 21.0961 7.16397L21.2154 7.40145C21.7813 8.52887 22.9017 9.27251 24.1604 9.35612L25.1997 9.42515C28.1933 9.624 29.2805 13.4708 26.834 15.2073C25.7292 15.9914 25.2405 17.3879 25.6153 18.6898L25.6499 18.8101C26.4631 21.6346 23.5188 24.071 20.8963 22.7438L19.3588 21.9657C18.1902 21.3743 16.8099 21.3743 15.6412 21.9657L14.1037 22.7438C11.4812 24.071 8.53694 21.6346 9.35007 18.8101L9.38472 18.6898C9.75951 17.3879 9.27079 15.9914 8.16604 15.2073C5.71947 13.4708 6.80673 9.624 9.80031 9.42515L10.8396 9.35612C12.0983 9.27251 13.2187 8.52887 13.7846 7.40145L13.9039 7.16396Z" fill="#F1C644"/>
<path d="M15.2444 7.8369C16.1758 5.9815 18.8242 5.9815 19.7556 7.83691L19.8748 8.07439C20.6792 9.67695 22.2718 10.734 24.061 10.8528L25.1003 10.9219C26.6857 11.0272 27.2615 13.0644 25.9658 13.984C24.3413 15.137 23.6227 17.1905 24.1738 19.1048L24.2085 19.2251C24.6592 20.7907 23.0272 22.1411 21.5737 21.4055L20.0361 20.6273C18.4416 19.8204 16.5584 19.8204 14.9639 20.6273L13.4263 21.4055C11.9728 22.1411 10.3408 20.7907 10.7915 19.2251L10.8262 19.1048C11.3773 17.1905 10.6587 15.137 9.03422 13.984C7.73852 13.0644 8.31434 11.0272 9.89974 10.9219L10.939 10.8528C12.7282 10.734 14.3208 9.67694 15.1252 8.07439L15.2444 7.8369Z" stroke="#F1C644" stroke-width="3"/>
</g>
<g filter="url(#filter1_d_668_857)">
<path d="M48.9039 7.16396C50.3888 4.20581 54.6112 4.20581 56.0961 7.16397L56.2154 7.40145C56.7813 8.52887 57.9017 9.27251 59.1604 9.35612L60.1997 9.42515C63.1933 9.624 64.2805 13.4708 61.834 15.2073C60.7292 15.9914 60.2405 17.3879 60.6153 18.6898L60.6499 18.8101C61.4631 21.6346 58.5188 24.071 55.8963 22.7438L54.3588 21.9657C53.1902 21.3743 51.8099 21.3743 50.6412 21.9657L49.1037 22.7438C46.4812 24.071 43.5369 21.6346 44.3501 18.8101L44.3847 18.6898C44.7595 17.3879 44.2708 15.9914 43.166 15.2073C40.7195 13.4708 41.8067 9.624 44.8003 9.42515L45.8396 9.35612C47.0983 9.27251 48.2187 8.52887 48.7846 7.40145L48.9039 7.16396Z" fill="#F1C644"/>
<path d="M50.2444 7.8369C51.1758 5.9815 53.8242 5.9815 54.7556 7.83691L54.8748 8.07439C55.6792 9.67695 57.2718 10.734 59.061 10.8528L60.1003 10.9219C61.6857 11.0272 62.2615 13.0644 60.9658 13.984C59.3413 15.137 58.6227 17.1905 59.1738 19.1048L59.2085 19.2251C59.6592 20.7907 58.0272 22.1411 56.5737 21.4055L55.0361 20.6273C53.4416 19.8204 51.5584 19.8204 49.9639 20.6273L48.4263 21.4055C46.9728 22.1411 45.3408 20.7907 45.7915 19.2251L45.8262 19.1048C46.3773 17.1905 45.6587 15.137 44.0342 13.984C42.7385 13.0644 43.3143 11.0272 44.8997 10.9219L45.939 10.8528C47.7282 10.734 49.3208 9.67694 50.1252 8.07439L50.2444 7.8369Z" stroke="#F1C644" stroke-width="3"/>
</g>
<g filter="url(#filter2_d_668_857)">
<path d="M83.9039 7.16396C85.3888 4.20581 89.6112 4.20581 91.0961 7.16397L91.2154 7.40145C91.7813 8.52887 92.9017 9.27251 94.1604 9.35612L95.1997 9.42515C98.1933 9.624 99.2805 13.4708 96.834 15.2073C95.7292 15.9914 95.2405 17.3879 95.6153 18.6898L95.6499 18.8101C96.4631 21.6346 93.5188 24.071 90.8963 22.7438L89.3588 21.9657C88.1902 21.3743 86.8099 21.3743 85.6412 21.9657L84.1037 22.7438C81.4812 24.071 78.5369 21.6346 79.3501 18.8101L79.3847 18.6898C79.7595 17.3879 79.2708 15.9914 78.166 15.2073C75.7195 13.4708 76.8067 9.624 79.8003 9.42515L80.8396 9.35612C82.0983 9.27251 83.2187 8.52887 83.7846 7.40145L83.9039 7.16396Z" fill="#F1C644"/>
<path d="M85.2444 7.8369C86.1758 5.9815 88.8242 5.9815 89.7556 7.83691L89.8748 8.07439C90.6792 9.67695 92.2718 10.734 94.061 10.8528L95.1003 10.9219C96.6857 11.0272 97.2615 13.0644 95.9658 13.984C94.3413 15.137 93.6227 17.1905 94.1738 19.1048L94.2085 19.2251C94.6592 20.7907 93.0272 22.1411 91.5737 21.4055L90.0361 20.6273C88.4416 19.8204 86.5584 19.8204 84.9639 20.6273L83.4263 21.4055C81.9728 22.1411 80.3408 20.7907 80.7915 19.2251L80.8262 19.1048C81.3773 17.1905 80.6587 15.137 79.0342 13.984C77.7385 13.0644 78.3143 11.0272 79.8997 10.9219L80.939 10.8528C82.7282 10.734 84.3208 9.67694 85.1252 8.07439L85.2444 7.8369Z" stroke="#F1C644" stroke-width="3"/>
</g>
<g filter="url(#filter3_d_668_857)">
<path d="M120.244 7.8369C121.176 5.9815 123.824 5.9815 124.756 7.83691L124.875 8.07439C125.679 9.67695 127.272 10.734 129.061 10.8528L130.1 10.9219C131.686 11.0272 132.261 13.0644 130.966 13.984C129.341 15.137 128.623 17.1905 129.174 19.1048L129.208 19.2251C129.659 20.7907 128.027 22.1411 126.574 21.4055L125.036 20.6273C123.442 19.8204 121.558 19.8204 119.964 20.6273L118.426 21.4055C116.973 22.1411 115.341 20.7907 115.792 19.2251L115.826 19.1048C116.377 17.1905 115.659 15.137 114.034 13.984C112.739 13.0644 113.314 11.0272 114.9 10.9219L115.939 10.8528C117.728 10.734 119.321 9.67694 120.125 8.07439L120.244 7.8369Z" stroke="#F1C644" stroke-width="3" shape-rendering="crispEdges"/>
</g>
<g filter="url(#filter4_d_668_857)">
<path d="M155.244 7.8369C156.176 5.9815 158.824 5.9815 159.756 7.83691L159.875 8.07439C160.679 9.67695 162.272 10.734 164.061 10.8528L165.1 10.9219C166.686 11.0272 167.261 13.0644 165.966 13.984C164.341 15.137 163.623 17.1905 164.174 19.1048L164.208 19.2251C164.659 20.7907 163.027 22.1411 161.574 21.4055L160.036 20.6273C158.442 19.8204 156.558 19.8204 154.964 20.6273L153.426 21.4055C151.973 22.1411 150.341 20.7907 150.792 19.2251L150.826 19.1048C151.377 17.1905 150.659 15.137 149.034 13.984C147.739 13.0644 148.314 11.0272 149.9 10.9219L150.939 10.8528C152.728 10.734 154.321 9.67694 155.125 8.07439L155.244 7.8369Z" stroke="#F1C644" stroke-width="3" shape-rendering="crispEdges"/>
</g>
<defs>
<filter id="filter0_d_668_857" x="2.81836" y="4.94537" width="29.3633" height="26.1706" filterUnits="userSpaceOnUse" color-interpolation-filters="sRGB">
<feFlood flood-opacity="0" result="BackgroundImageFix"/>
<feColorMatrix in="SourceAlpha" type="matrix" values="0 0 0 0 0 0 0 0 0 0 0 0 0 0 0 0 0 0 127 0" result="hardAlpha"/>
<feOffset dy="4"/>
<feGaussianBlur stdDeviation="2"/>
<feComposite in2="hardAlpha" operator="out"/>
<feColorMatrix type="matrix" values="0 0 0 0 0 0 0 0 0 0 0 0 0 0 0 0 0 0 0.25 0"/>
<feBlend mode="normal" in2="BackgroundImageFix" result="effect1_dropShadow_668_857"/>
<feBlend mode="normal" in="SourceGraphic" in2="effect1_dropShadow_668_857" result="shape"/>
</filter>
<filter id="filter1_d_668_857" x="37.8184" y="4.94537" width="29.3633" height="26.1706" filterUnits="userSpaceOnUse" color-interpolation-filters="sRGB">
<feFlood flood-opacity="0" result="BackgroundImageFix"/>
<feColorMatrix in="SourceAlpha" type="matrix" values="0 0 0 0 0 0 0 0 0 0 0 0 0 0 0 0 0 0 127 0" result="hardAlpha"/>
<feOffset dy="4"/>
<feGaussianBlur stdDeviation="2"/>
<feComposite in2="hardAlpha" operator="out"/>
<feColorMatrix type="matrix" values="0 0 0 0 0 0 0 0 0 0 0 0 0 0 0 0 0 0 0.25 0"/>
<feBlend mode="normal" in2="BackgroundImageFix" result="effect1_dropShadow_668_857"/>
<feBlend mode="normal" in="SourceGraphic" in2="effect1_dropShadow_668_857" result="shape"/>
</filter>
<filter id="filter2_d_668_857" x="72.8184" y="4.94537" width="29.3633" height="26.1706" filterUnits="userSpaceOnUse" color-interpolation-filters="sRGB">
<feFlood flood-opacity="0" result="BackgroundImageFix"/>
<feColorMatrix in="SourceAlpha" type="matrix" values="0 0 0 0 0 0 0 0 0 0 0 0 0 0 0 0 0 0 127 0" result="hardAlpha"/>
<feOffset dy="4"/>
<feGaussianBlur stdDeviation="2"/>
<feComposite in2="hardAlpha" operator="out"/>
<feColorMatrix type="matrix" values="0 0 0 0 0 0 0 0 0 0 0 0 0 0 0 0 0 0 0.25 0"/>
<feBlend mode="normal" in2="BackgroundImageFix" result="effect1_dropShadow_668_857"/>
<feBlend mode="normal" in="SourceGraphic" in2="effect1_dropShadow_668_857" result="shape"/>
</filter>
<filter id="filter3_d_668_857" x="107.818" y="4.94537" width="29.3633" height="26.1706" filterUnits="userSpaceOnUse" color-interpolation-filters="sRGB">
<feFlood flood-opacity="0" result="BackgroundImageFix"/>
<feColorMatrix in="SourceAlpha" type="matrix" values="0 0 0 0 0 0 0 0 0 0 0 0 0 0 0 0 0 0 127 0" result="hardAlpha"/>
<feOffset dy="4"/>
<feGaussianBlur stdDeviation="2"/>
<feComposite in2="hardAlpha" operator="out"/>
<feColorMatrix type="matrix" values="0 0 0 0 0 0 0 0 0 0 0 0 0 0 0 0 0 0 0.25 0"/>
<feBlend mode="normal" in2="BackgroundImageFix" result="effect1_dropShadow_668_857"/>
<feBlend mode="normal" in="SourceGraphic" in2="effect1_dropShadow_668_857" result="shape"/>
</filter>
<filter id="filter4_d_668_857" x="142.818" y="4.94537" width="29.3633" height="26.1706" filterUnits="userSpaceOnUse" color-interpolation-filters="sRGB">
<feFlood flood-opacity="0" result="BackgroundImageFix"/>
<feColorMatrix in="SourceAlpha" type="matrix" values="0 0 0 0 0 0 0 0 0 0 0 0 0 0 0 0 0 0 127 0" result="hardAlpha"/>
<feOffset dy="4"/>
<feGaussianBlur stdDeviation="2"/>
<feComposite in2="hardAlpha" operator="out"/>
<feColorMatrix type="matrix" values="0 0 0 0 0 0 0 0 0 0 0 0 0 0 0 0 0 0 0.25 0"/>
<feBlend mode="normal" in2="BackgroundImageFix" result="effect1_dropShadow_668_857"/>
<feBlend mode="normal" in="SourceGraphic" in2="effect1_dropShadow_668_857" result="shape"/>
</filter>
</defs>
</svg>
