<svg width="61" height="61" viewBox="0 0 61 61" fill="none" xmlns="http://www.w3.org/2000/svg">
<path d="M27.1184 9.79253L12.0527 21.0918C10.7972 22.0459 10.0439 23.5274 10.0439 25.1093V47.7078C10.0439 50.4698 12.3038 52.7296 15.0658 52.7296H45.1971C47.9592 52.7296 50.219 50.4698 50.219 47.7078V25.1093C50.219 23.5274 49.4657 22.0459 48.2103 21.0918L33.1446 9.79253C31.3618 8.46173 28.9011 8.46173 27.1184 9.79253ZM31.387 31.3866C31.387 33.4707 29.7046 35.153 27.6205 35.153V43.9413C27.6205 44.6444 27.0681 45.1968 26.3651 45.1968C25.662 45.1968 25.1096 44.6444 25.1096 43.9413V35.153C23.0255 35.153 21.3432 33.4707 21.3432 31.3866V25.1093C21.3432 24.4062 21.8956 23.8538 22.5987 23.8538C23.3017 23.8538 23.8541 24.4062 23.8541 25.1093V31.3866H25.1096V25.1093C25.1096 24.4062 25.662 23.8538 26.3651 23.8538C27.0681 23.8538 27.6205 24.4062 27.6205 25.1093V31.3866H28.876V25.1093C28.876 24.4062 29.4284 23.8538 30.1315 23.8538C30.8345 23.8538 31.387 24.4062 31.387 25.1093V31.3866ZM36.4088 45.1968C35.7058 45.1968 35.1534 44.6444 35.1534 43.9413V36.4085H33.8979C33.1948 36.4085 32.6424 35.8561 32.6424 35.153V28.8757C32.6424 26.6661 34.0737 24.7829 36.0573 24.13C36.8357 23.8538 37.6643 24.4815 37.6643 25.3353V43.9413C37.6643 44.6444 37.1119 45.1968 36.4088 45.1968Z" fill="white"/>
</svg>
